<svg class="illu" viewBox="0 0 400 320" aria-hidden="true" focusable="false">
  <g filter="url(#skakig)" stroke="#3B2A25" stroke-width="5" stroke-linecap="round" stroke-linejoin="round">

    <ellipse cx="200" cy="280" rx="160" ry="22" fill="#E4EEFA"/>
    <path d="M72,277 A128,12 0 0 0 328,277" fill="none" stroke="#9CC0EE" stroke-width="3"/>
    <ellipse cx="204" cy="262" rx="80" ry="12" fill="#3B2A25" opacity=".12" stroke="none"/>
    <g transform="translate(140 204) rotate(0 60 29)">
      <path d="M2,46 L118,46 C120,54 100,58 60,58 C20,58 0,54 2,46 Z" fill="#F4B8BE"/>
      <path d="M4,39 L116,39 L118,46 L2,46 Z" fill="#F4B8BE" stroke-width="3.5"/>
      <path d="M8,29 L112,29 Q118,34 112,39 L8,39 Q2,34 8,29 Z" fill="#C8363D" stroke-width="3.5"/>
      <path d="M4,22 L116,22 L118,29 L2,29 Z" fill="#F4B8BE" stroke-width="3.5"/>
      <path d="M8,26 L112,26 M8,43 L112,43" stroke-dasharray="1 5" stroke-width="2.5" fill="none"/>
      <path d="M2,22 C2,4 25,0 60,0 C95,0 118,4 118,22 Z" fill="#F4B8BE"/>
      <path d="M22,11 C30,6 44,5 52,5" stroke="#FFF9EF" stroke-width="4" fill="none" opacity=".8"/>
    </g>
    <g transform="translate(146 146) rotate(-3 60 29)">
      <path d="M2,46 L118,46 C120,54 100,58 60,58 C20,58 0,54 2,46 Z" fill="#C9DEA6"/>
      <path d="M4,39 L116,39 L118,46 L2,46 Z" fill="#C9DEA6" stroke-width="3.5"/>
      <path d="M8,29 L112,29 Q118,34 112,39 L8,39 Q2,34 8,29 Z" fill="#8FB56E" stroke-width="3.5"/>
      <path d="M4,22 L116,22 L118,29 L2,29 Z" fill="#C9DEA6" stroke-width="3.5"/>
      <path d="M8,26 L112,26 M8,43 L112,43" stroke-dasharray="1 5" stroke-width="2.5" fill="none"/>
      <path d="M2,22 C2,4 25,0 60,0 C95,0 118,4 118,22 Z" fill="#C9DEA6"/>
      <path d="M22,11 C30,6 44,5 52,5" stroke="#FFF9EF" stroke-width="4" fill="none" opacity=".8"/>
    </g>
    <g transform="translate(138 88) rotate(2 60 29)">
      <path d="M2,46 L118,46 C120,54 100,58 60,58 C20,58 0,54 2,46 Z" fill="#B9D1F3"/>
      <path d="M4,39 L116,39 L118,46 L2,46 Z" fill="#B9D1F3" stroke-width="3.5"/>
      <path d="M8,29 L112,29 Q118,34 112,39 L8,39 Q2,34 8,29 Z" fill="#6C92D2" stroke-width="3.5"/>
      <path d="M4,22 L116,22 L118,29 L2,29 Z" fill="#B9D1F3" stroke-width="3.5"/>
      <path d="M8,26 L112,26 M8,43 L112,43" stroke-dasharray="1 5" stroke-width="2.5" fill="none"/>
      <path d="M2,22 C2,4 25,0 60,0 C95,0 118,4 118,22 Z" fill="#B9D1F3"/>
      <path d="M22,11 C30,6 44,5 52,5" stroke="#FFF9EF" stroke-width="4" fill="none" opacity=".8"/>
    </g>
    <g transform="translate(146 30) rotate(-2 60 29)">
      <path d="M2,46 L118,46 C120,54 100,58 60,58 C20,58 0,54 2,46 Z" fill="#F7DC8C"/>
      <path d="M4,39 L116,39 L118,46 L2,46 Z" fill="#F7DC8C" stroke-width="3.5"/>
      <path d="M8,29 L112,29 Q118,34 112,39 L8,39 Q2,34 8,29 Z" fill="#F0B84A" stroke-width="3.5"/>
      <path d="M4,22 L116,22 L118,29 L2,29 Z" fill="#F7DC8C" stroke-width="3.5"/>
      <path d="M8,26 L112,26 M8,43 L112,43" stroke-dasharray="1 5" stroke-width="2.5" fill="none"/>
      <path d="M2,22 C2,4 25,0 60,0 C95,0 118,4 118,22 Z" fill="#F7DC8C"/>
      <path d="M22,11 C30,6 44,5 52,5" stroke="#FFF9EF" stroke-width="4" fill="none" opacity=".8"/>
    </g>
    <g transform="translate(28 214) rotate(-14 60 29)">
      <path d="M2,46 L118,46 C120,54 100,58 60,58 C20,58 0,54 2,46 Z" fill="#F7DC8C"/>
      <path d="M4,39 L116,39 L118,46 L2,46 Z" fill="#F7DC8C" stroke-width="3.5"/>
      <path d="M8,29 L112,29 Q118,34 112,39 L8,39 Q2,34 8,29 Z" fill="#F0B84A" stroke-width="3.5"/>
      <path d="M4,22 L116,22 L118,29 L2,29 Z" fill="#F7DC8C" stroke-width="3.5"/>
      <path d="M8,26 L112,26 M8,43 L112,43" stroke-dasharray="1 5" stroke-width="2.5" fill="none"/>
      <path d="M2,22 C2,4 25,0 60,0 C95,0 118,4 118,22 Z" fill="#F7DC8C"/>
      <path d="M22,11 C30,6 44,5 52,5" stroke="#FFF9EF" stroke-width="4" fill="none" opacity=".8"/>
    </g>
    <g transform="translate(250 218) rotate(12 60 29)">
      <path d="M2,46 L118,46 C120,54 100,58 60,58 C20,58 0,54 2,46 Z" fill="#F4B8BE"/>
      <path d="M4,39 L116,39 L118,46 L2,46 Z" fill="#F4B8BE" stroke-width="3.5"/>
      <path d="M8,29 L112,29 Q118,34 112,39 L8,39 Q2,34 8,29 Z" fill="#C8363D" stroke-width="3.5"/>
      <path d="M4,22 L116,22 L118,29 L2,29 Z" fill="#F4B8BE" stroke-width="3.5"/>
      <path d="M8,26 L112,26 M8,43 L112,43" stroke-dasharray="1 5" stroke-width="2.5" fill="none"/>
      <path d="M2,22 C2,4 25,0 60,0 C95,0 118,4 118,22 Z" fill="#F4B8BE"/>
      <path d="M22,11 C30,6 44,5 52,5" stroke="#FFF9EF" stroke-width="4" fill="none" opacity=".8"/>
    </g>
  </g>
</svg>
